<svg width="250" height="250" viewBox="0 0 250 250" fill="none" xmlns="http://www.w3.org/2000/svg">
<g opacity="0.4">
<path d="M167.193 188.436C162.459 188.332 158.651 184.374 158.651 179.582C158.548 174.79 162.356 170.842 167.09 170.738H167.193C172.029 170.738 175.94 174.697 175.94 179.582C175.94 184.478 172.029 188.436 167.193 188.436ZM125.206 150.103C120.472 150.322 116.561 146.561 116.356 141.78C116.356 136.988 120.06 133.03 124.794 132.811C129.425 132.811 133.233 136.467 133.336 141.145C133.541 145.947 129.837 149.905 125.206 150.103ZM125.206 187.915C120.472 188.134 116.561 184.374 116.356 179.582C116.356 174.79 120.06 170.842 124.794 170.624C129.425 170.624 133.233 174.28 133.336 178.967C133.541 183.759 129.837 187.717 125.206 187.915ZM82.9103 150.103C78.1765 150.322 74.2659 146.561 74.0601 141.78C74.0601 136.988 77.7648 133.03 82.4986 132.811C87.1295 132.811 90.9372 136.467 91.0401 141.145C91.2459 145.947 87.5412 149.905 82.9103 150.103ZM82.8073 187.915C78.0735 188.134 74.163 184.374 73.9572 179.582C73.9572 174.79 77.6619 170.842 82.3957 170.624C87.0266 170.624 90.8342 174.28 90.9372 178.967C91.143 183.759 87.4382 187.717 82.8073 187.915ZM158.754 141.676C158.754 136.884 162.459 133.03 167.193 132.926C171.824 132.926 175.528 136.665 175.734 141.259C175.837 146.051 172.132 150.009 167.501 150.103C162.768 150.207 158.857 146.561 158.754 141.78V141.676ZM31.25 96.4258V175.728C31.25 208.645 52.0376 229.165 84.6597 229.165H165.237C198.168 229.165 218.75 209.061 218.75 176.363V96.4258H31.25Z" fill="black"/>
<path opacity="0.4" d="M31.2856 96.4303C31.4194 90.3157 31.934 78.1803 32.9013 74.2741C37.8409 52.3053 54.6151 38.347 78.5929 36.3574H171.417C195.189 38.4512 212.169 52.5033 217.108 74.2741C218.065 78.0762 218.58 90.3053 218.714 96.4303H31.2856Z" fill="black"/>
<path d="M86.507 68.6465C91.035 68.6465 94.431 65.2194 94.431 60.6256V28.8652C94.431 24.2715 91.035 20.834 86.507 20.834C81.979 20.834 78.583 24.2715 78.583 28.8652V60.6256C78.583 65.2194 81.979 68.6465 86.507 68.6465Z" fill="black"/>
<path d="M163.487 68.6465C167.913 68.6465 171.411 65.2194 171.411 60.6256V28.8652C171.411 24.2715 167.913 20.834 163.487 20.834C158.959 20.834 155.563 24.2715 155.563 28.8652V60.6256C155.563 65.2194 158.959 68.6465 163.487 68.6465Z" fill="black"/>
</g>
</svg>
