<svg width="240" height="240" viewBox="0 0 240 240" fill="none" xmlns="http://www.w3.org/2000/svg">
<path opacity="0.4" d="M219.999 159.402C219.999 187.302 197.599 209.902 169.699 210.002H169.599H70.499C42.699 210.002 19.999 187.502 19.999 159.602V159.502C19.999 159.502 20.059 115.242 20.139 92.982C20.149 88.802 24.949 86.462 28.219 89.062C51.979 107.912 94.469 142.282 94.999 142.732C102.099 148.422 111.099 151.632 120.299 151.632C129.499 151.632 138.499 148.422 145.599 142.622C146.129 142.272 187.669 108.932 211.789 89.772C215.069 87.162 219.889 89.502 219.899 93.6719C219.999 115.762 219.999 159.402 219.999 159.402Z" fill="#A19F9D"/>
<path d="M214.76 56.7361C206.1 40.4161 189.06 29.9961 170.3 29.9961H70.4998C51.7398 29.9961 34.6998 40.4161 26.0398 56.7361C24.0998 60.3861 25.0198 64.9361 28.2498 67.5161L102.5 126.906C107.7 131.106 114 133.196 120.3 133.196C120.34 133.196 120.37 133.196 120.4 133.196C120.43 133.196 120.47 133.196 120.5 133.196C126.8 133.196 133.1 131.106 138.3 126.906L212.55 67.5161C215.78 64.9361 216.7 60.3861 214.76 56.7361Z" fill="#A19F9D"/>
</svg>
